<svg width="100" height="100" viewBox="0 0 100 100" xmlns="http://www.w3.org/2000/svg">
  <defs>
    <pattern id="neural-pattern" x="0" y="0" width="50" height="50" patternUnits="userSpaceOnUse">
      <path d="M10 10L40 10M10 20L40 20M10 30L40 30M10 40L40 40" stroke="currentColor" strokeWidth="1" />
      <circle cx="10" cy="10" r="2" fill="currentColor" />
      <circle cx="20" cy="10" r="1" fill="currentColor" />
      <circle cx="30" cy="10" r="1" fill="currentColor" />
      <circle cx="40" cy="10" r="2" fill="currentColor" />
      <circle cx="10" cy="20" r="1" fill="currentColor" />
      <circle cx="20" cy="20" r="2" fill="currentColor" />
      <circle cx="30" cy="20" r="2" fill="currentColor" />
      <circle cx="40" cy="20" r="1" fill="currentColor" />
      <circle cx="10" cy="30" r="1" fill="currentColor" />
      <circle cx="20" cy="30" r="2" fill="currentColor" />
      <circle cx="30" cy="30" r="2" fill="currentColor" />
      <circle cx="40" cy="30" r="1" fill="currentColor" />
      <circle cx="10" cy="40" r="2" fill="currentColor" />
      <circle cx="20" cy="40" r="1" fill="currentColor" />
      <circle cx="30" cy="40" r="1" fill="currentColor" />
      <circle cx="40" cy="40" r="2" fill="currentColor" />
    </pattern>
  </defs>
  <rect width="100" height="100" fill="url(#neural-pattern)" />
</svg>
